<mxfile host="app.diagrams.net" modified="2023-11-02T11:52:56.849Z" agent="Mozilla/5.0 (Windows NT 10.0; Win64; x64) AppleWebKit/537.36 (KHTML, like Gecko) Chrome/118.0.0.0 Safari/537.36" etag="AOG1VRKLzNR-0z-fsUil" version="22.0.8" type="github">
  <diagram name="Страница — 1" id="Q8KHaUthsuFeSNkkdv9o">
    <mxGraphModel dx="593" dy="744" grid="1" gridSize="10" guides="1" tooltips="1" connect="1" arrows="1" fold="1" page="1" pageScale="1" pageWidth="827" pageHeight="1169" math="0" shadow="0">
      <root>
        <mxCell id="0" />
        <mxCell id="1" parent="0" />
        <mxCell id="bKMlac2f21c74Cc6UCh6-1" value="Киоск" style="swimlane;horizontal=0;whiteSpace=wrap;html=1;" vertex="1" parent="1">
          <mxGeometry x="1110" y="108.88" width="1390" height="351.12" as="geometry" />
        </mxCell>
        <mxCell id="bKMlac2f21c74Cc6UCh6-2" style="edgeStyle=orthogonalEdgeStyle;rounded=0;orthogonalLoop=1;jettySize=auto;html=1;" edge="1" parent="bKMlac2f21c74Cc6UCh6-1" source="bKMlac2f21c74Cc6UCh6-3">
          <mxGeometry relative="1" as="geometry">
            <mxPoint x="652.5" y="65" as="targetPoint" />
          </mxGeometry>
        </mxCell>
        <mxCell id="bKMlac2f21c74Cc6UCh6-3" value="" style="ellipse;whiteSpace=wrap;html=1;aspect=fixed;fillColor=#fff2cc;strokeColor=#d6b656;" vertex="1" parent="bKMlac2f21c74Cc6UCh6-1">
          <mxGeometry x="537.5" y="45" width="40" height="40" as="geometry" />
        </mxCell>
        <mxCell id="bKMlac2f21c74Cc6UCh6-4" value="Покупатель &lt;br&gt;авторизовался" style="text;html=1;align=center;verticalAlign=middle;resizable=0;points=[];autosize=1;strokeColor=none;fillColor=none;" vertex="1" parent="bKMlac2f21c74Cc6UCh6-1">
          <mxGeometry x="502.5" y="89.99999999999997" width="110" height="40" as="geometry" />
        </mxCell>
        <mxCell id="bKMlac2f21c74Cc6UCh6-5" style="edgeStyle=orthogonalEdgeStyle;rounded=0;orthogonalLoop=1;jettySize=auto;html=1;exitX=0.5;exitY=0;exitDx=0;exitDy=0;entryX=0;entryY=0.5;entryDx=0;entryDy=0;" edge="1" parent="bKMlac2f21c74Cc6UCh6-1" source="bKMlac2f21c74Cc6UCh6-7" target="bKMlac2f21c74Cc6UCh6-3">
          <mxGeometry relative="1" as="geometry" />
        </mxCell>
        <mxCell id="bKMlac2f21c74Cc6UCh6-6" style="edgeStyle=orthogonalEdgeStyle;rounded=0;orthogonalLoop=1;jettySize=auto;html=1;entryX=0;entryY=0.5;entryDx=0;entryDy=0;exitX=0.5;exitY=1;exitDx=0;exitDy=0;" edge="1" parent="bKMlac2f21c74Cc6UCh6-1" source="bKMlac2f21c74Cc6UCh6-7" target="bKMlac2f21c74Cc6UCh6-11">
          <mxGeometry relative="1" as="geometry" />
        </mxCell>
        <mxCell id="bKMlac2f21c74Cc6UCh6-7" value="" style="rhombus;whiteSpace=wrap;html=1;" vertex="1" parent="bKMlac2f21c74Cc6UCh6-1">
          <mxGeometry x="400" y="115" width="60" height="60" as="geometry" />
        </mxCell>
        <mxCell id="bKMlac2f21c74Cc6UCh6-8" style="edgeStyle=orthogonalEdgeStyle;rounded=0;orthogonalLoop=1;jettySize=auto;html=1;entryX=0;entryY=0.5;entryDx=0;entryDy=0;" edge="1" parent="bKMlac2f21c74Cc6UCh6-1">
          <mxGeometry relative="1" as="geometry">
            <mxPoint x="142.49998999999752" y="145.01999999999998" as="sourcePoint" />
            <mxPoint x="212.5" y="145" as="targetPoint" />
          </mxGeometry>
        </mxCell>
        <mxCell id="bKMlac2f21c74Cc6UCh6-10" style="edgeStyle=orthogonalEdgeStyle;rounded=0;orthogonalLoop=1;jettySize=auto;html=1;entryX=0;entryY=0.5;entryDx=0;entryDy=0;" edge="1" parent="bKMlac2f21c74Cc6UCh6-1" target="bKMlac2f21c74Cc6UCh6-7">
          <mxGeometry relative="1" as="geometry">
            <mxPoint x="332.5" y="145" as="sourcePoint" />
          </mxGeometry>
        </mxCell>
        <mxCell id="bKMlac2f21c74Cc6UCh6-11" value="" style="ellipse;whiteSpace=wrap;html=1;aspect=fixed;fillColor=#fff2cc;strokeColor=#d6b656;" vertex="1" parent="bKMlac2f21c74Cc6UCh6-1">
          <mxGeometry x="537.5" y="185" width="40" height="40" as="geometry" />
        </mxCell>
        <mxCell id="bKMlac2f21c74Cc6UCh6-12" value="Покупатель &lt;br&gt;не авторизовался" style="text;html=1;align=center;verticalAlign=middle;resizable=0;points=[];autosize=1;strokeColor=none;fillColor=none;" vertex="1" parent="bKMlac2f21c74Cc6UCh6-1">
          <mxGeometry x="497.5" y="230" width="120" height="40" as="geometry" />
        </mxCell>
        <mxCell id="bKMlac2f21c74Cc6UCh6-13" style="edgeStyle=orthogonalEdgeStyle;rounded=0;orthogonalLoop=1;jettySize=auto;html=1;entryX=0;entryY=0.5;entryDx=0;entryDy=0;" edge="1" parent="bKMlac2f21c74Cc6UCh6-1" target="bKMlac2f21c74Cc6UCh6-22">
          <mxGeometry relative="1" as="geometry">
            <mxPoint x="772.5" y="65.01999999999998" as="sourcePoint" />
          </mxGeometry>
        </mxCell>
        <mxCell id="bKMlac2f21c74Cc6UCh6-14" style="edgeStyle=orthogonalEdgeStyle;rounded=0;orthogonalLoop=1;jettySize=auto;html=1;" edge="1" parent="bKMlac2f21c74Cc6UCh6-1" source="bKMlac2f21c74Cc6UCh6-15" target="bKMlac2f21c74Cc6UCh6-25">
          <mxGeometry relative="1" as="geometry" />
        </mxCell>
        <mxCell id="bKMlac2f21c74Cc6UCh6-15" value="" style="ellipse;whiteSpace=wrap;html=1;aspect=fixed;fillColor=#fff2cc;strokeColor=#d6b656;" vertex="1" parent="bKMlac2f21c74Cc6UCh6-1">
          <mxGeometry x="974.5" y="45" width="40" height="40" as="geometry" />
        </mxCell>
        <mxCell id="bKMlac2f21c74Cc6UCh6-16" value="Покупатель оплатил&lt;br&gt;&amp;nbsp;заказ" style="text;html=1;align=center;verticalAlign=middle;resizable=0;points=[];autosize=1;strokeColor=none;fillColor=none;" vertex="1" parent="bKMlac2f21c74Cc6UCh6-1">
          <mxGeometry x="924.5" y="89.99999999999997" width="140" height="40" as="geometry" />
        </mxCell>
        <mxCell id="bKMlac2f21c74Cc6UCh6-17" style="edgeStyle=orthogonalEdgeStyle;rounded=0;orthogonalLoop=1;jettySize=auto;html=1;endArrow=none;endFill=0;entryX=0;entryY=0.5;entryDx=0;entryDy=0;entryPerimeter=0;" edge="1" parent="bKMlac2f21c74Cc6UCh6-1" source="bKMlac2f21c74Cc6UCh6-18" target="bKMlac2f21c74Cc6UCh6-28">
          <mxGeometry relative="1" as="geometry">
            <mxPoint x="1250" y="151.12" as="targetPoint" />
          </mxGeometry>
        </mxCell>
        <mxCell id="bKMlac2f21c74Cc6UCh6-18" value="" style="ellipse;whiteSpace=wrap;html=1;aspect=fixed;fillColor=#fff2cc;strokeColor=#d6b656;" vertex="1" parent="bKMlac2f21c74Cc6UCh6-1">
          <mxGeometry x="974.5" y="185" width="40" height="40" as="geometry" />
        </mxCell>
        <mxCell id="bKMlac2f21c74Cc6UCh6-19" value="Покупатель &lt;br&gt;не оплатил заказ" style="text;html=1;align=center;verticalAlign=middle;resizable=0;points=[];autosize=1;strokeColor=none;fillColor=none;" vertex="1" parent="bKMlac2f21c74Cc6UCh6-1">
          <mxGeometry x="934.5" y="230" width="120" height="40" as="geometry" />
        </mxCell>
        <mxCell id="bKMlac2f21c74Cc6UCh6-20" style="edgeStyle=orthogonalEdgeStyle;rounded=0;orthogonalLoop=1;jettySize=auto;html=1;entryX=0;entryY=0.5;entryDx=0;entryDy=0;exitX=0.5;exitY=0;exitDx=0;exitDy=0;" edge="1" parent="bKMlac2f21c74Cc6UCh6-1" source="bKMlac2f21c74Cc6UCh6-22" target="bKMlac2f21c74Cc6UCh6-15">
          <mxGeometry relative="1" as="geometry" />
        </mxCell>
        <mxCell id="bKMlac2f21c74Cc6UCh6-21" style="edgeStyle=orthogonalEdgeStyle;rounded=0;orthogonalLoop=1;jettySize=auto;html=1;entryX=0;entryY=0.5;entryDx=0;entryDy=0;exitX=0.5;exitY=1;exitDx=0;exitDy=0;" edge="1" parent="bKMlac2f21c74Cc6UCh6-1" source="bKMlac2f21c74Cc6UCh6-22" target="bKMlac2f21c74Cc6UCh6-18">
          <mxGeometry relative="1" as="geometry" />
        </mxCell>
        <mxCell id="bKMlac2f21c74Cc6UCh6-22" value="" style="rhombus;whiteSpace=wrap;html=1;" vertex="1" parent="bKMlac2f21c74Cc6UCh6-1">
          <mxGeometry x="844.5" y="125" width="60" height="60" as="geometry" />
        </mxCell>
        <mxCell id="bKMlac2f21c74Cc6UCh6-23" value="Киоск завершил &lt;br&gt;сессию" style="text;html=1;align=center;verticalAlign=middle;resizable=0;points=[];autosize=1;strokeColor=none;fillColor=none;" vertex="1" parent="bKMlac2f21c74Cc6UCh6-1">
          <mxGeometry x="1270" y="185" width="110" height="40" as="geometry" />
        </mxCell>
        <mxCell id="bKMlac2f21c74Cc6UCh6-24" style="edgeStyle=orthogonalEdgeStyle;rounded=0;orthogonalLoop=1;jettySize=auto;html=1;entryX=0;entryY=0.5;entryDx=0;entryDy=0;entryPerimeter=0;" edge="1" parent="bKMlac2f21c74Cc6UCh6-1" source="bKMlac2f21c74Cc6UCh6-25" target="bKMlac2f21c74Cc6UCh6-28">
          <mxGeometry relative="1" as="geometry">
            <mxPoint x="1290" y="150" as="targetPoint" />
          </mxGeometry>
        </mxCell>
        <mxCell id="bKMlac2f21c74Cc6UCh6-25" value="Оформить заказ" style="rounded=1;whiteSpace=wrap;html=1;" vertex="1" parent="bKMlac2f21c74Cc6UCh6-1">
          <mxGeometry x="1089.5" y="35" width="120" height="60" as="geometry" />
        </mxCell>
        <mxCell id="bKMlac2f21c74Cc6UCh6-44" style="edgeStyle=orthogonalEdgeStyle;rounded=0;orthogonalLoop=1;jettySize=auto;html=1;entryX=0.5;entryY=0;entryDx=0;entryDy=0;dashed=1;" edge="1" parent="bKMlac2f21c74Cc6UCh6-1" source="bKMlac2f21c74Cc6UCh6-26" target="bKMlac2f21c74Cc6UCh6-41">
          <mxGeometry relative="1" as="geometry" />
        </mxCell>
        <mxCell id="bKMlac2f21c74Cc6UCh6-26" value="Запросить меню в сервисе&lt;br style=&quot;border-color: var(--border-color);&quot;&gt;и отобразить" style="points=[[0.25,0,0],[0.5,0,0],[0.75,0,0],[1,0.25,0],[1,0.5,0],[1,0.75,0],[0.75,1,0],[0.5,1,0],[0.25,1,0],[0,0.75,0],[0,0.5,0],[0,0.25,0]];shape=mxgraph.bpmn.task;whiteSpace=wrap;rectStyle=rounded;size=10;html=1;container=1;expand=0;collapsible=0;taskMarker=service;" vertex="1" parent="bKMlac2f21c74Cc6UCh6-1">
          <mxGeometry x="212.5" y="100" width="120" height="80" as="geometry" />
        </mxCell>
        <mxCell id="bKMlac2f21c74Cc6UCh6-27" value="Запросить меню в сервисе&lt;br style=&quot;border-color: var(--border-color);&quot;&gt;и отобразить" style="points=[[0.25,0,0],[0.5,0,0],[0.75,0,0],[1,0.25,0],[1,0.5,0],[1,0.75,0],[0.75,1,0],[0.5,1,0],[0.25,1,0],[0,0.75,0],[0,0.5,0],[0,0.25,0]];shape=mxgraph.bpmn.task;whiteSpace=wrap;rectStyle=rounded;size=10;html=1;container=1;expand=0;collapsible=0;taskMarker=service;" vertex="1" parent="bKMlac2f21c74Cc6UCh6-1">
          <mxGeometry x="650" y="25" width="120" height="80" as="geometry" />
        </mxCell>
        <mxCell id="bKMlac2f21c74Cc6UCh6-28" value="" style="points=[[0.145,0.145,0],[0.5,0,0],[0.855,0.145,0],[1,0.5,0],[0.855,0.855,0],[0.5,1,0],[0.145,0.855,0],[0,0.5,0]];shape=mxgraph.bpmn.event;html=1;verticalLabelPosition=bottom;labelBackgroundColor=#ffffff;verticalAlign=top;align=center;perimeter=ellipsePerimeter;outlineConnect=0;aspect=fixed;outline=end;symbol=terminate2;fillColor=#f8cecc;strokeColor=#b85450;" vertex="1" parent="bKMlac2f21c74Cc6UCh6-1">
          <mxGeometry x="1300" y="125" width="50" height="50" as="geometry" />
        </mxCell>
        <mxCell id="bKMlac2f21c74Cc6UCh6-29" value="" style="points=[[0.145,0.145,0],[0.5,0,0],[0.855,0.145,0],[1,0.5,0],[0.855,0.855,0],[0.5,1,0],[0.145,0.855,0],[0,0.5,0]];shape=mxgraph.bpmn.event;html=1;verticalLabelPosition=bottom;labelBackgroundColor=#ffffff;verticalAlign=top;align=center;perimeter=ellipsePerimeter;outlineConnect=0;aspect=fixed;outline=standard;symbol=general;fillColor=#d5e8d4;strokeColor=#82b366;" vertex="1" parent="bKMlac2f21c74Cc6UCh6-1">
          <mxGeometry x="100" y="130" width="50" height="50" as="geometry" />
        </mxCell>
        <mxCell id="bKMlac2f21c74Cc6UCh6-30" style="edgeStyle=orthogonalEdgeStyle;rounded=0;orthogonalLoop=1;jettySize=auto;html=1;endArrow=none;endFill=0;entryX=0;entryY=0.5;entryDx=0;entryDy=0;" edge="1" parent="bKMlac2f21c74Cc6UCh6-1" source="bKMlac2f21c74Cc6UCh6-11" target="bKMlac2f21c74Cc6UCh6-22">
          <mxGeometry relative="1" as="geometry">
            <mxPoint x="810" y="166.12" as="targetPoint" />
          </mxGeometry>
        </mxCell>
        <mxCell id="bKMlac2f21c74Cc6UCh6-31" value="Оформить заказ" style="points=[[0.25,0,0],[0.5,0,0],[0.75,0,0],[1,0.25,0],[1,0.5,0],[1,0.75,0],[0.75,1,0],[0.5,1,0],[0.25,1,0],[0,0.75,0],[0,0.5,0],[0,0.25,0]];shape=mxgraph.bpmn.task;whiteSpace=wrap;rectStyle=rounded;size=10;html=1;container=1;expand=0;collapsible=0;taskMarker=service;" vertex="1" parent="bKMlac2f21c74Cc6UCh6-1">
          <mxGeometry x="1089.5" y="25" width="120" height="80" as="geometry" />
        </mxCell>
        <mxCell id="bKMlac2f21c74Cc6UCh6-32" value="" style="verticalLabelPosition=bottom;verticalAlign=top;html=1;shape=mxgraph.basic.pie;startAngle=0.2;endAngle=0.9;fillColor=#f5f5f5;fontColor=#333333;strokeColor=#666666;" vertex="1" parent="bKMlac2f21c74Cc6UCh6-1">
          <mxGeometry x="100" y="241.12" width="50" height="50" as="geometry" />
        </mxCell>
        <mxCell id="bKMlac2f21c74Cc6UCh6-33" value="Кол-во сессий" style="text;html=1;align=center;verticalAlign=middle;resizable=0;points=[];autosize=1;strokeColor=none;fillColor=none;" vertex="1" parent="bKMlac2f21c74Cc6UCh6-1">
          <mxGeometry x="75" y="306.12" width="100" height="30" as="geometry" />
        </mxCell>
        <mxCell id="bKMlac2f21c74Cc6UCh6-36" value="" style="verticalLabelPosition=bottom;verticalAlign=top;html=1;shape=mxgraph.basic.pie;startAngle=0.2;endAngle=0.9;fillColor=#f5f5f5;fontColor=#333333;strokeColor=#666666;" vertex="1" parent="bKMlac2f21c74Cc6UCh6-1">
          <mxGeometry x="1124.5" y="241.12" width="50" height="50" as="geometry" />
        </mxCell>
        <mxCell id="bKMlac2f21c74Cc6UCh6-37" value="Кол-во&amp;nbsp; успешных &lt;br&gt;сессий (конверсия)" style="text;html=1;align=center;verticalAlign=middle;resizable=0;points=[];autosize=1;strokeColor=none;fillColor=none;" vertex="1" parent="bKMlac2f21c74Cc6UCh6-1">
          <mxGeometry x="1079.5" y="301.12" width="130" height="40" as="geometry" />
        </mxCell>
        <mxCell id="bKMlac2f21c74Cc6UCh6-40" value="" style="edgeStyle=elbowEdgeStyle;fontSize=12;html=1;endFill=0;startFill=0;endSize=6;startSize=6;dashed=1;dashPattern=1 4;endArrow=none;startArrow=none;rounded=0;entryX=0.5;entryY=1;entryDx=0;entryDy=0;entryPerimeter=0;" edge="1" parent="bKMlac2f21c74Cc6UCh6-1" source="bKMlac2f21c74Cc6UCh6-36" target="bKMlac2f21c74Cc6UCh6-31">
          <mxGeometry width="160" relative="1" as="geometry">
            <mxPoint x="590" y="271.12" as="sourcePoint" />
            <mxPoint x="750" y="271.12" as="targetPoint" />
          </mxGeometry>
        </mxCell>
        <mxCell id="bKMlac2f21c74Cc6UCh6-41" value="" style="shape=datastore;html=1;labelPosition=center;verticalLabelPosition=bottom;align=center;verticalAlign=top;" vertex="1" parent="bKMlac2f21c74Cc6UCh6-1">
          <mxGeometry x="250" y="245" width="46.12" height="46.12" as="geometry" />
        </mxCell>
        <mxCell id="bKMlac2f21c74Cc6UCh6-42" value="DB log" style="text;html=1;align=center;verticalAlign=middle;resizable=0;points=[];autosize=1;strokeColor=none;fillColor=none;" vertex="1" parent="bKMlac2f21c74Cc6UCh6-1">
          <mxGeometry x="243.05999999999995" y="306.12" width="60" height="30" as="geometry" />
        </mxCell>
        <mxCell id="bKMlac2f21c74Cc6UCh6-45" style="edgeStyle=orthogonalEdgeStyle;rounded=0;orthogonalLoop=1;jettySize=auto;html=1;entryX=0.5;entryY=0.54;entryDx=0;entryDy=0;entryPerimeter=0;endArrow=none;endFill=0;dashed=1;" edge="1" parent="bKMlac2f21c74Cc6UCh6-1" source="bKMlac2f21c74Cc6UCh6-9" target="bKMlac2f21c74Cc6UCh6-32">
          <mxGeometry relative="1" as="geometry" />
        </mxCell>
        <mxCell id="bKMlac2f21c74Cc6UCh6-48" value="" style="edgeStyle=orthogonalEdgeStyle;rounded=0;orthogonalLoop=1;jettySize=auto;html=1;entryX=0.5;entryY=0.54;entryDx=0;entryDy=0;entryPerimeter=0;endArrow=none;endFill=0;dashed=1;" edge="1" parent="bKMlac2f21c74Cc6UCh6-1" source="bKMlac2f21c74Cc6UCh6-29" target="bKMlac2f21c74Cc6UCh6-9">
          <mxGeometry relative="1" as="geometry">
            <mxPoint x="1235" y="288.88" as="sourcePoint" />
            <mxPoint x="1235" y="376.88" as="targetPoint" />
          </mxGeometry>
        </mxCell>
        <mxCell id="bKMlac2f21c74Cc6UCh6-9" value="Покупатель начал &lt;br&gt;сессию" style="text;html=1;align=center;verticalAlign=middle;resizable=0;points=[];autosize=1;strokeColor=none;fillColor=none;" vertex="1" parent="bKMlac2f21c74Cc6UCh6-1">
          <mxGeometry x="65" y="185" width="120" height="40" as="geometry" />
        </mxCell>
        <mxCell id="bKMlac2f21c74Cc6UCh6-53" style="edgeStyle=orthogonalEdgeStyle;rounded=0;orthogonalLoop=1;jettySize=auto;html=1;entryX=0.5;entryY=0;entryDx=0;entryDy=0;dashed=1;" edge="1" target="bKMlac2f21c74Cc6UCh6-54" parent="bKMlac2f21c74Cc6UCh6-1" source="bKMlac2f21c74Cc6UCh6-27">
          <mxGeometry relative="1" as="geometry">
            <mxPoint x="729.94" y="161.12" as="sourcePoint" />
          </mxGeometry>
        </mxCell>
        <mxCell id="bKMlac2f21c74Cc6UCh6-54" value="" style="shape=datastore;html=1;labelPosition=center;verticalLabelPosition=bottom;align=center;verticalAlign=top;" vertex="1" parent="bKMlac2f21c74Cc6UCh6-1">
          <mxGeometry x="706.94" y="243.06" width="46.12" height="46.12" as="geometry" />
        </mxCell>
        <mxCell id="bKMlac2f21c74Cc6UCh6-55" value="DB log" style="text;html=1;align=center;verticalAlign=middle;resizable=0;points=[];autosize=1;strokeColor=none;fillColor=none;" vertex="1" parent="bKMlac2f21c74Cc6UCh6-1">
          <mxGeometry x="700" y="301.12" width="60" height="30" as="geometry" />
        </mxCell>
      </root>
    </mxGraphModel>
  </diagram>
</mxfile>
